<svg width="30" height="30" viewBox="0 0 30 30" fill="none" xmlns="http://www.w3.org/2000/svg">
<path fill-rule="evenodd" clip-rule="evenodd" d="M15 0C6.71573 0 0 6.71573 0 15C0 23.2843 6.71573 30 15 30C23.2843 30 30 23.2843 30 15C30 6.71573 23.2843 0 15 0ZM11.702 7.0483C12.5554 7.00947 12.828 6.99997 15.0007 6.99997H14.9982C17.1716 6.99997 17.4432 7.00947 18.2966 7.0483C19.1483 7.0873 19.7299 7.22214 20.2399 7.41997C20.7666 7.62414 21.2116 7.89748 21.6566 8.34248C22.1016 8.78716 22.375 9.23349 22.58 9.75966C22.7766 10.2683 22.9116 10.8497 22.9516 11.7014C22.99 12.5547 23 12.8274 23 15.0001C23 17.1727 22.99 17.4447 22.9516 18.2981C22.9116 19.1494 22.7766 19.7309 22.58 20.2398C22.375 20.7658 22.1016 21.2121 21.6566 21.6568C21.2121 22.1018 20.7664 22.3758 20.2404 22.5801C19.7314 22.778 19.1494 22.9128 18.2978 22.9518C17.4444 22.9906 17.1726 23.0001 14.9997 23.0001C12.8272 23.0001 12.5547 22.9906 11.7014 22.9518C10.8498 22.9128 10.2683 22.778 9.75933 22.5801C9.23349 22.3758 8.78716 22.1018 8.34265 21.6568C7.89781 21.2121 7.62448 20.7658 7.41997 20.2396C7.22231 19.7309 7.08747 19.1496 7.0483 18.2979C7.00964 17.4446 6.99997 17.1727 6.99997 15.0001C6.99997 12.8274 7.00997 12.5545 7.04814 11.7012C7.08647 10.8498 7.22147 10.2683 7.41981 9.7595C7.62481 9.23349 7.89815 8.78716 8.34315 8.34248C8.78782 7.89765 9.23416 7.62431 9.76033 7.41997C10.269 7.22214 10.8503 7.0873 11.702 7.0483Z" fill="white"/>
<path fill-rule="evenodd" clip-rule="evenodd" d="M14.2831 8.44145C14.4225 8.44124 14.5724 8.4413 14.7341 8.44137L15.0008 8.44145C17.1368 8.44145 17.39 8.44912 18.2335 8.48745C19.0135 8.52312 19.4368 8.65346 19.7188 8.76296C20.0922 8.90796 20.3583 9.08129 20.6382 9.3613C20.9182 9.6413 21.0915 9.90797 21.2368 10.2813C21.3463 10.563 21.4769 10.9863 21.5124 11.7663C21.5507 12.6097 21.559 12.863 21.559 14.998C21.559 17.133 21.5507 17.3864 21.5124 18.2297C21.4767 19.0097 21.3463 19.4331 21.2368 19.7147C21.0918 20.0881 20.9182 20.3539 20.6382 20.6337C20.3582 20.9137 20.0923 21.0871 19.7188 21.2321C19.4372 21.3421 19.0135 21.4721 18.2335 21.5078C17.3901 21.5461 17.1368 21.5544 15.0008 21.5544C12.8646 21.5544 12.6114 21.5461 11.7681 21.5078C10.9881 21.4718 10.5647 21.3414 10.2826 21.2319C9.90923 21.0869 9.64256 20.9136 9.36256 20.6336C9.08256 20.3536 8.90922 20.0876 8.76389 19.7141C8.65439 19.4324 8.52388 19.0091 8.48838 18.2291C8.45005 17.3857 8.44238 17.1324 8.44238 14.996C8.44238 12.8597 8.45005 12.6077 8.48838 11.7643C8.52405 10.9843 8.65439 10.561 8.76389 10.279C8.90889 9.90563 9.08256 9.63897 9.36256 9.35896C9.64256 9.07896 9.90923 8.90562 10.2826 8.76029C10.5646 8.65029 10.9881 8.52029 11.7681 8.48445C12.5061 8.45112 12.7921 8.44112 14.2831 8.43945V8.44145ZM19.271 9.76986C18.741 9.76986 18.311 10.1994 18.311 10.7295C18.311 11.2595 18.741 11.6896 19.271 11.6896C19.8011 11.6896 20.2311 11.2595 20.2311 10.7295C20.2311 10.1995 19.8011 9.76953 19.271 9.76953V9.76986ZM10.8926 14.999C10.8926 12.7302 12.732 10.8907 15.0008 10.8906C17.2696 10.8906 19.1087 12.7301 19.1087 14.999C19.1087 17.2679 17.2698 19.1065 15.001 19.1065C12.7321 19.1065 10.8926 17.2679 10.8926 14.999Z" fill="white"/>
<path d="M15.0007 12.334C16.4734 12.334 17.6674 13.5278 17.6674 15.0007C17.6674 16.4734 16.4734 17.6674 15.0007 17.6674C13.5278 17.6674 12.334 16.4734 12.334 15.0007C12.334 13.5278 13.5278 12.334 15.0007 12.334Z" fill="white"/>
</svg>
