<svg width="30" height="30" viewBox="0 0 30 30" fill="none" xmlns="http://www.w3.org/2000/svg">
<path d="M0 15C0 6.71573 6.71573 0 15 0C23.2843 0 30 6.71573 30 15C30 23.2843 23.2843 30 15 30C6.71573 30 0 23.2843 0 15Z" fill="white"/>
<path fill-rule="evenodd" clip-rule="evenodd" d="M14.666 7.00712C13.8806 7.05145 13.0987 7.2127 12.3866 7.47718C10.1022 8.32558 8.35667 10.166 7.63138 12.4907C7.12871 14.102 7.17679 15.9062 7.76466 17.4926C7.90857 17.881 8.11949 18.3323 8.31518 18.6706L8.40283 18.8221L7.70037 20.9093C7.31401 22.0573 6.99885 22.9981 7 23C7.00117 23.0019 7.97131 22.6932 9.15589 22.3139L11.3097 21.6243L11.5308 21.7372C12.419 22.1905 13.326 22.455 14.35 22.5595C14.6177 22.5868 15.2604 22.5968 15.5539 22.5783C17.8542 22.4331 19.9228 21.321 21.3143 19.4814C22.1677 18.3533 22.6828 17.039 22.8409 15.5862C22.8906 15.1293 22.8868 14.4178 22.832 13.9228C22.6551 12.324 21.9788 10.8134 20.8968 9.6002C19.5744 8.11739 17.741 7.20075 15.7478 7.02578C15.4732 7.00167 14.9289 6.99228 14.666 7.00712ZM15.7603 8.33762C16.4608 8.41605 17.0989 8.58782 17.7239 8.86617C18.7282 9.31349 19.6249 10.0331 20.2914 10.9267C20.8572 11.6853 21.2598 12.5851 21.4443 13.5038C21.5369 13.9651 21.5688 14.2966 21.5687 14.7983C21.5686 15.1835 21.558 15.3481 21.5118 15.6863C21.2212 17.8086 19.875 19.6695 17.9427 20.6198C17.2228 20.9739 16.4957 21.1788 15.6728 21.2597C15.4064 21.2858 14.7971 21.2892 14.5471 21.2659C13.4785 21.1662 12.5163 20.8446 11.6372 20.2933L11.5099 20.2135L10.2677 20.6117C9.58441 20.8307 9.02392 21.0089 9.02212 21.0077C9.02032 21.0065 9.20071 20.4644 9.42301 19.803L9.82718 18.6004L9.74106 18.4784C9.24516 17.7761 8.85917 16.8497 8.70009 15.9802C8.57322 15.2867 8.55979 14.5243 8.66228 13.8353C8.97023 11.7651 10.2828 9.9504 12.1583 9.00191C12.9425 8.60535 13.7478 8.38477 14.666 8.31503C14.8284 8.30269 15.5885 8.31839 15.7603 8.33762ZM12.263 11.0128C12.1223 11.0598 12.0406 11.1183 11.8636 11.2987C11.6302 11.5366 11.54 11.6579 11.4235 11.8905C11.2615 12.2138 11.1898 12.5349 11.1915 12.9285C11.193 13.2594 11.2499 13.5475 11.3852 13.9103C11.5355 14.3134 11.6783 14.5689 12.1646 15.3048C12.8579 16.3541 13.7608 17.2506 14.6567 17.7793C15.0673 18.0216 15.9809 18.4104 16.5432 18.582C16.9325 18.7009 17.1324 18.7222 17.4269 18.6763C17.8141 18.616 17.9224 18.5836 18.1871 18.4492C18.544 18.268 18.8186 18.0326 18.9309 17.8116C19.0395 17.5977 19.1266 17.2374 19.1293 16.991C19.1316 16.7722 19.1444 16.7849 18.6495 16.5179C17.7858 16.052 17.4641 15.8873 17.3309 15.8426C17.1439 15.7798 17.0689 15.8057 16.929 15.9815C16.7166 16.2483 16.2894 16.7222 16.2168 16.7716C16.1739 16.8008 16.154 16.8056 16.0776 16.8056C15.9894 16.8056 15.9856 16.8042 15.7097 16.6681C15.1188 16.3765 14.7107 16.0939 14.2922 15.6863C13.8929 15.2974 13.507 14.7812 13.2568 14.301C13.1563 14.1083 13.17 14.0477 13.3568 13.8551C13.6603 13.5424 13.7548 13.4232 13.853 13.2296C13.8979 13.141 13.903 13.1219 13.9022 13.0422C13.9014 12.9666 13.8924 12.9315 13.8411 12.8035C13.808 12.7209 13.6694 12.3514 13.5332 11.9823C13.397 11.6132 13.2681 11.2768 13.2468 11.2346C13.2022 11.1462 13.1338 11.0659 13.0785 11.037C13.0387 11.0162 12.8898 11.0033 12.5336 10.9899C12.3656 10.9835 12.3456 10.9852 12.263 11.0128Z" fill="#00AE84"/>
</svg>
