<svg width="18" height="18" viewBox="0 0 18 18" fill="none" xmlns="http://www.w3.org/2000/svg">
<path fill-rule="evenodd" clip-rule="evenodd" d="M9.55812 0.174983C9.27271 0.51871 9.53681 0.844517 10.2777 1.06295C12.2305 1.63893 13.4627 2.33951 14.5856 3.5125C15.7921 4.77269 16.4908 6.03161 16.9014 7.68534C17.0735 8.37802 17.4374 8.65246 17.8165 8.37533C18.0437 8.20926 18.0505 8.12008 17.8886 7.42839C17.0195 3.71597 13.9181 0.711457 10.2557 0.0338797C9.87685 -0.0362486 9.7045 -0.00139614 9.55812 0.174983ZM2.96509 1.11699C2.39722 1.26811 0.909879 2.62975 0.443082 3.42614C-0.039948 4.25004 -0.124641 5.17441 0.172348 6.38253C1.00389 9.76576 3.93227 13.6079 7.40368 15.8697C10.1377 17.6512 12.6514 18.3841 14.0451 17.8058C14.6232 17.5661 16.3798 15.916 16.6977 15.3144C17.1896 14.3832 16.934 13.8624 15.1068 12.0722C13.1975 10.2018 12.7945 10.1383 11.3811 11.4861C10.4005 12.421 10.3074 12.4181 8.97402 11.4091C7.86003 10.566 6.56875 9.17214 6.02206 8.22238L5.61907 7.52237L6.44905 6.65839C7.8294 5.2214 7.75939 4.65275 5.97379 2.80571C4.43027 1.20899 3.84801 0.882192 2.96509 1.11699ZM5.00406 3.38127C5.90067 4.27375 6.31242 4.78623 6.31242 5.0096C6.31242 5.21618 5.97887 5.69042 5.40127 6.30521C4.52597 7.23677 4.49534 7.29364 4.62464 7.74601C5.13759 9.53958 9.13762 13.3671 10.4993 13.3671C10.8126 13.3671 11.1057 13.1682 11.7469 12.5205C12.9108 11.3447 13.0116 11.3615 14.6145 12.9953C15.3275 13.7222 15.9109 14.4268 15.9109 14.5613C15.9109 14.9644 14.0974 16.7358 13.5021 16.9142C12.3825 17.2495 9.65552 16.2408 7.46847 14.6824C6.09829 13.7061 4.37423 12.0007 3.42497 10.6828C1.71968 8.31522 0.737106 5.70679 1.08872 4.48117C1.26093 3.88078 3.0039 2.07889 3.41226 2.07889C3.58122 2.07889 4.22475 2.60548 5.00406 3.38127ZM9.49841 3.42939C9.37645 3.55144 9.27666 3.70567 9.27666 3.77213C9.27666 3.978 9.70788 4.3364 9.95716 4.33795C10.3983 4.34049 11.7438 5.05574 12.293 5.57952C12.8263 6.08819 13.6522 7.57006 13.6523 8.01863C13.6524 8.33695 14.1339 8.73374 14.3975 8.63271C14.7492 8.49781 14.7849 8.20841 14.5483 7.41019C14.247 6.3934 13.7915 5.6567 12.9885 4.88726C12.1517 4.08537 11.5464 3.72344 10.5566 3.43277C9.63561 3.16242 9.76519 3.16284 9.49841 3.42939Z" fill="white"/>
</svg>
